<?xml version="1.0" standalone="no"?>
<!DOCTYPE svg PUBLIC "-//W3C//DTD SVG 20010904//EN"
 "http://www.w3.org/TR/2001/REC-SVG-20010904/DTD/svg10.dtd">
<svg version="1.0" xmlns="http://www.w3.org/2000/svg"
 width="800.000000pt" height="800.000000pt" viewBox="0 0 800.000000 800.000000"
 preserveAspectRatio="xMidYMid meet">

<g transform="translate(0.000000,800.000000) scale(0.100000,-0.100000)"
fill="#000000" stroke="none">
<path d="M3755 6870 c-341 -38 -621 -119 -920 -265 -851 -416 -1407 -1223
-1496 -2170 -15 -158 -7 -478 16 -625 75 -483 278 -945 580 -1315 93 -115 284
-303 400 -396 213 -171 539 -353 788 -438 600 -207 1236 -202 1826 15 125 46
372 168 486 240 248 156 540 420 706 639 386 507 579 1110 556 1735 -29 759
-365 1456 -942 1949 -386 330 -848 539 -1370 617 -118 18 -514 27 -630 14z
m-459 -1241 c156 -22 327 -91 454 -185 36 -26 112 -94 171 -150 l105 -103 110
110 c168 170 311 256 520 310 126 33 348 34 478 1 293 -73 534 -265 666 -530
77 -155 105 -279 103 -467 0 -117 -5 -156 -27 -240 -29 -111 -83 -232 -147
-327 -27 -41 -330 -352 -873 -896 l-831 -833 -829 829 c-479 480 -847 856
-873 893 -62 87 -119 208 -149 315 -32 112 -43 314 -24 431 88 546 596 919
1146 842z"/>
<path d="M3057 5354 c-168 -30 -313 -110 -433 -237 -154 -164 -222 -350 -212
-581 9 -190 92 -392 177 -431 91 -41 189 14 198 112 4 42 0 59 -31 120 -68
134 -80 270 -35 401 72 208 233 325 470 341 125 8 151 21 180 87 25 56 17 104
-23 150 -49 55 -134 67 -291 38z"/>
</g>
</svg>
